<svg xmlns="http://www.w3.org/2000/svg" version="1.1" xmlns:xlink="http://www.w3.org/1999/xlink" xmlns:svgjs="http://svgjs.dev/svgjs" width="128" height="128" viewBox="0 0 128 128"><g transform="matrix(0.8046875,0,0,0.8046875,12.333870967741937,12.333870967741937)"><svg viewBox="0 0 155 155" data-background-color="#e8772e" preserveAspectRatio="xMidYMid meet" height="128" width="128" xmlns="http://www.w3.org/2000/svg" xmlns:xlink="http://www.w3.org/1999/xlink"><g id="tight-bounds" transform="matrix(1,0,0,1,0.25,0.25)"><svg viewBox="0 0 154.5 154.5" height="154.5" width="154.5"><g><svg viewBox="0 0 154.5 154.5" height="154.5" width="154.5"><g><svg viewBox="0 0 154.5 154.5" height="154.5" width="154.5"><g id="textblocktransform"><svg viewBox="0 0 154.5 154.5" height="154.5" width="154.5" id="textblock"><g><svg viewBox="0 0 154.5 154.5" height="154.5" width="154.5"><g transform="matrix(1,0,0,1,0,0)"><svg width="154.5" viewBox="0 -50 43.75 43.75" height="154.5" data-palette-color="#ffffff"><path d="M37.5-6.25L6.25-6.25 6.25-12.5 0-12.5 0-18.75 12.5-18.75 12.5-12.5 31.25-12.5 31.25-25 6.25-25 6.25-31.25 0-31.25 0-43.75 6.25-43.75 6.25-50 37.5-50 37.5-43.75 43.75-43.75 43.75-37.5 31.25-37.5 31.25-43.75 12.5-43.75 12.5-31.25 37.5-31.25 37.5-25 43.75-25 43.75-12.5 37.5-12.5 37.5-6.25Z" opacity="1" transform="matrix(1,0,0,1,0,0)" fill="#000000" class="undefined-text-0" data-fill-palette-color="primary" id="text-0"></path></svg></g></svg></g></svg></g></svg></g><g></g></svg></g><defs></defs></svg><rect width="154.5" height="154.5" fill="none" stroke="none" visibility="hidden"></rect></g></svg></g></svg>